<svg width="234" height="72" viewBox="0 0 234 72" fill="none" xmlns="http://www.w3.org/2000/svg">
<g clip-path="url(#clip0_15311_148)">
<rect x="0.5" y="0.5" width="233" height="71" rx="11.5" fill="white"/>
<rect x="0.5" y="0.5" width="233" height="71" rx="11.5" stroke="#D2D2D2"/>
<g clip-path="url(#clip1_15311_148)">
<path d="M21.332 35.9997C21.332 27.8995 27.8985 21.333 35.9987 21.333V21.333C44.0989 21.333 50.6654 27.8995 50.6654 35.9997V35.9997C50.6654 44.0999 44.0989 50.6663 35.9987 50.6663V50.6663C27.8985 50.6663 21.332 44.0999 21.332 35.9997V35.9997Z" fill="white"/>
<path d="M36.0011 58C30.5341 57.8679 28.37 54.2134 27.7094 50.6841C27.3508 48.7653 27.5081 45.5751 27.7094 44.4364C28.0365 42.5805 28.565 39.9131 29.1501 36.8178C29.9868 32.3826 32.2075 29.8599 37.0014 28.9603L44.8426 27.4628C45.0503 26.2989 45.444 23.2165 45.0854 21.3166C44.4186 17.7495 41.6694 14.0566 36.0891 14C23.9347 14 14.0011 23.8456 14.0011 36C14.0011 48.1544 23.8467 58 36.0011 58Z" fill="#9EB9FF"/>
<path d="M36.0004 14C41.4674 14.1321 44.1726 17.7935 44.8331 21.3228C45.1917 23.2416 44.4934 26.4249 44.2921 27.5636C43.965 29.4195 43.4365 32.0869 42.8514 35.1822C42.0147 39.6174 39.794 42.1401 35.0001 43.0398L27.7032 44.4724C27.4956 45.6363 26.8098 48.7818 27.1684 50.6817C27.8353 54.2488 30.3321 57.9434 35.9123 58C48.0668 58 58.0004 48.1544 58.0004 36C58.0004 23.8456 48.1548 14 36.0004 14Z" fill="#5282FF"/>
</g>
<path fill-rule="evenodd" clip-rule="evenodd" d="M163.911 36.2438C166.03 36.2438 167.471 35.4809 168.347 34.8876V32.1471C167.217 32.9664 165.974 33.588 164.165 33.588C161.058 33.588 159.588 31.0735 159.588 26.1575C159.588 21.1002 161.001 18.6987 164.335 18.6987C165.889 18.6987 167.33 19.3768 168.347 20.0266V17.2861C167.443 16.6363 165.974 16.043 164.165 16.043C158.939 16.043 156.113 19.8854 156.113 26.1575C156.113 32.5991 159.052 36.2438 163.911 36.2438ZM173.974 16.3255H170.612V35.9612H173.974V16.3255ZM176.227 28.8698C176.227 24.095 178.798 21.4675 182.499 21.4675C186.2 21.4675 188.771 24.095 188.771 28.8415C188.771 33.6162 186.2 36.2438 182.499 36.2438C178.798 36.2438 176.227 33.6162 176.227 28.8698ZM179.702 28.8698C179.702 32.1471 180.634 33.588 182.499 33.588C184.364 33.588 185.296 32.1471 185.296 28.8415C185.296 25.5642 184.364 24.1233 182.499 24.1233C180.634 24.1233 179.702 25.5642 179.702 28.8698ZM198.798 31.9493C198.177 32.7121 197.188 33.362 195.973 33.362C194.786 33.362 194.25 32.8534 194.25 31.7798V21.75H190.887V32.1188C190.887 34.9441 192.018 36.1872 194.758 36.1872C196.764 36.1872 197.951 35.4527 198.629 34.7746H198.798L198.883 35.9612H202.16V21.75H198.798V31.9493ZM213.578 34.1248C212.674 35.5092 211.375 36.2438 209.793 36.2438C206.628 36.2438 204.425 33.6445 204.425 28.9545C204.425 24.208 206.685 21.4675 209.934 21.4675C211.403 21.4675 212.646 22.1456 213.494 23.417V16.3255H216.856V35.9612H213.748L213.578 34.1248ZM213.494 28.8415C213.494 25.5642 212.59 24.1233 210.781 24.1233C208.86 24.1233 207.9 25.5924 207.9 28.9545C207.9 32.1753 208.804 33.588 210.64 33.588C212.533 33.588 213.494 32.1471 213.494 28.8415ZM75.9071 32.6271V35.9609H72.4885V30.3386L66.0469 16.3252H69.6067L74.6357 27.2873C75.5963 29.378 75.9071 30.1126 75.9071 32.6271ZM82.3205 16.3252L78.1391 25.8182H74.664L78.8454 16.3252H82.3205ZM117.637 34.1245C116.732 35.5089 115.433 36.2435 113.851 36.2435C110.686 36.2435 108.483 33.6442 108.483 28.9542C108.483 24.2077 110.743 21.4672 113.992 21.4672C115.461 21.4672 116.704 22.1453 117.552 23.4167V16.3252H120.914V35.9609H117.806L117.637 34.1245ZM134.504 32.2598V35.0003C133.515 35.6784 131.933 36.2435 129.785 36.2435C125.491 36.2435 123.061 33.842 123.061 28.8977C123.061 24.6033 125.011 21.4672 129.107 21.4672C132.469 21.4672 134.645 23.3319 134.645 28.2762V30.0561H126.536C126.677 32.4293 127.61 33.5877 130.068 33.5877C131.706 33.5877 133.458 32.9661 134.504 32.2598ZM86.8975 21.5237C90.4573 21.5237 92.209 22.8234 92.209 26.2702V32.4858C92.209 33.6442 92.2655 34.8026 92.3785 35.9609H89.1012C88.9882 35.6784 88.8752 35.1981 88.8469 34.8308H88.7057C88.0558 35.5089 87.2083 36.1587 85.2306 36.1587C82.6313 36.1587 80.8796 34.5765 80.8796 31.836C80.8796 28.8695 83.1681 27.2025 88.3101 27.2025H88.8469V26.2985C88.8469 24.7728 88.1123 24.2077 86.5019 24.2077C84.609 24.2077 82.9703 25.2248 81.8967 26.1007V23.1906C82.9138 22.4561 84.6938 21.5237 86.8975 21.5237ZM101.137 24.349C99.922 24.349 98.9332 24.9988 98.3116 25.7616V35.9609H94.9495V21.7497H98.2269L98.3116 22.9364H98.4811C99.1592 22.2583 100.346 21.5237 102.352 21.5237C105.092 21.5237 106.222 22.7668 106.222 25.5921V35.9609H102.86V25.9312C102.86 24.8576 102.324 24.349 101.137 24.349ZM148.63 35.9609H144.844L141.821 31.1579L138.967 35.9609H135.549L140.013 28.5587L135.718 21.7497H139.504L142.217 26.0442L144.646 21.7497H148.008L143.996 28.6434L148.63 35.9609ZM117.552 28.8412C117.552 25.5639 116.648 24.123 114.84 24.123C112.918 24.123 111.958 25.5921 111.958 28.9542C111.958 32.175 112.862 33.5877 114.698 33.5877C116.591 33.5877 117.552 32.1468 117.552 28.8412ZM131.226 27.2873C131.226 25.5074 130.718 24.123 129.051 24.123C127.44 24.123 126.621 25.3096 126.536 27.5698H131.226V27.2873ZM86.4454 33.7007C87.632 33.7007 88.4231 33.1922 88.8469 32.5706V29.4345H88.3666C85.4848 29.4345 84.3265 29.9996 84.3265 31.6382C84.3265 32.8814 85.0328 33.7007 86.4454 33.7007Z" fill="black"/>
<path d="M73.566 54.9613C72.8024 54.9613 72.1104 54.842 71.4899 54.6034C70.8694 54.3647 70.3349 54.0211 69.8863 53.5725C69.4472 53.1143 69.1083 52.5606 68.8697 51.9115C68.631 51.2529 68.5117 50.5131 68.5117 49.6922C68.5117 48.8618 68.6215 48.122 68.841 47.4729C69.0606 46.8238 69.3851 46.275 69.8147 45.8263C70.2442 45.3681 70.7692 45.0197 71.3897 44.7811C72.0197 44.5425 72.7356 44.4231 73.5374 44.4231C74.2342 44.4231 74.8451 44.4995 75.3701 44.6522C75.8951 44.7954 76.3247 44.9672 76.6588 45.1677V46.4563C76.2292 46.1795 75.7329 45.9743 75.1697 45.8406C74.616 45.707 74.0672 45.6402 73.5231 45.6402C72.3108 45.6402 71.4135 45.979 70.8313 46.6568C70.2585 47.325 69.9722 48.3368 69.9722 49.6922C69.9722 51.0572 70.2824 52.0738 70.9029 52.742C71.5329 53.4102 72.4588 53.7443 73.6806 53.7443C74.2056 53.7443 74.7163 53.6727 75.2126 53.5295C75.7185 53.3863 76.2006 53.1429 76.6588 52.7993V54.0879C76.3819 54.3075 75.9763 54.5079 75.4417 54.6893C74.9167 54.8706 74.2915 54.9613 73.566 54.9613Z" fill="#8A8A8A"/>
<path d="M84.4624 54.1881C84.3574 54.2645 84.2285 54.3456 84.0758 54.4315C83.9231 54.5175 83.7369 54.6034 83.5174 54.6893C83.2979 54.7656 83.0497 54.8277 82.7729 54.8754C82.496 54.9327 82.1858 54.9613 81.8422 54.9613C80.5917 54.9613 79.6419 54.6225 78.9929 53.9447C78.3438 53.267 78.0192 52.3172 78.0192 51.0954C78.0192 50.494 78.1051 49.9547 78.2769 49.4775C78.4583 49.0002 78.7065 48.5993 79.0215 48.2747C79.3365 47.9406 79.7088 47.6877 80.1383 47.5159C80.5679 47.3345 81.0356 47.2438 81.5415 47.2438C82.076 47.2438 82.5533 47.3345 82.9733 47.5159C83.3933 47.6972 83.7369 47.9645 84.0042 48.3177C84.281 48.6709 84.4672 49.11 84.5626 49.635C84.6676 50.1504 84.6676 50.7518 84.5626 51.439H79.3222C79.3699 52.2409 79.6085 52.8422 80.0381 53.2431C80.4676 53.6345 81.1072 53.8302 81.9567 53.8302C82.5294 53.8302 83.021 53.749 83.4315 53.5868C83.8419 53.4245 84.1856 53.2479 84.4624 53.057V54.1881ZM81.5129 48.3606C80.9688 48.3606 80.501 48.5277 80.1097 48.8618C79.7183 49.1959 79.4701 49.7018 79.3651 50.3795H83.3599C83.3981 49.6922 83.2406 49.1863 82.8874 48.8618C82.5342 48.5277 82.076 48.3606 81.5129 48.3606Z" fill="#8A8A8A"/>
<path d="M90.062 54.9613C89.4893 54.9613 88.9929 54.8277 88.5729 54.5604C88.1625 54.2931 87.8332 53.9256 87.585 53.4579V57.3525H86.325V47.387H87.4275L87.5564 48.8331C87.8045 48.3463 88.1386 47.9597 88.5586 47.6734C88.9786 47.387 89.4989 47.2438 90.1193 47.2438C90.5489 47.2438 90.9593 47.325 91.3507 47.4872C91.7516 47.64 92.1 47.8786 92.3959 48.2031C92.7014 48.5181 92.94 48.919 93.1118 49.4059C93.2932 49.8831 93.3839 50.4463 93.3839 51.0954C93.3839 51.754 93.2932 52.3268 93.1118 52.8136C92.9304 53.2909 92.687 53.6918 92.3816 54.0163C92.0761 54.3313 91.7229 54.57 91.322 54.7322C90.9211 54.885 90.5011 54.9613 90.062 54.9613ZM89.8759 53.8302C90.5345 53.8302 91.0643 53.6059 91.4652 53.1572C91.8757 52.699 92.0809 52.0118 92.0809 51.0954C92.0809 50.1981 91.8757 49.5204 91.4652 49.0622C91.0643 48.5945 90.5345 48.3606 89.8759 48.3606C89.5514 48.3606 89.2459 48.4179 88.9595 48.5325C88.6827 48.647 88.4393 48.8188 88.2293 49.0479C88.0289 49.2675 87.8666 49.549 87.7425 49.8927C87.6279 50.2363 87.5707 50.6372 87.5707 51.0954C87.5707 51.5536 87.6279 51.9545 87.7425 52.2981C87.8666 52.6418 88.0289 52.9281 88.2293 53.1572C88.4393 53.3863 88.6827 53.5581 88.9595 53.6727C89.2459 53.7777 89.5514 53.8302 89.8759 53.8302Z" fill="#8A8A8A"/>
<path d="M94.9819 47.387H97.7596C98.6569 47.387 99.3346 47.5445 99.7928 47.8595C100.251 48.165 100.48 48.647 100.48 49.3056C100.48 49.7447 100.366 50.0979 100.136 50.3652C99.9169 50.6229 99.6019 50.809 99.1914 50.9236C100.251 51.0954 100.781 51.6825 100.781 52.6847C100.781 53.0665 100.704 53.3959 100.552 53.6727C100.399 53.94 100.189 54.1595 99.9217 54.3313C99.6544 54.5031 99.3299 54.6272 98.948 54.7036C98.5758 54.78 98.1701 54.8181 97.731 54.8181H94.9819V47.387ZM96.2419 48.4609V50.4797H97.6451C98.1224 50.4797 98.5042 50.3938 98.7905 50.222C99.0864 50.0502 99.2344 49.802 99.2344 49.4775C99.2344 49.0861 99.1055 48.8188 98.8478 48.6756C98.5901 48.5325 98.2226 48.4609 97.7453 48.4609H96.2419ZM96.2419 51.482V53.7443H97.7167C97.9839 53.7443 98.2226 53.73 98.4326 53.7013C98.6521 53.6631 98.8383 53.6011 98.991 53.5152C99.1533 53.4293 99.2774 53.3147 99.3633 53.1715C99.4492 53.0284 99.4921 52.8518 99.4921 52.6418C99.4921 52.2122 99.3442 51.9115 99.0483 51.7397C98.7524 51.5679 98.3085 51.482 97.7167 51.482H96.2419Z" fill="#8A8A8A"/>
<path d="M104.004 53.1L107.97 47.387H109.244V54.8181H107.984V49.1195L104.033 54.8181H102.744V47.387H104.004V53.1Z" fill="#8A8A8A"/>
<path d="M114.58 54.9613C114.007 54.9613 113.487 54.8754 113.019 54.7036C112.561 54.5222 112.17 54.2693 111.845 53.9447C111.521 53.6106 111.273 53.205 111.101 52.7277C110.929 52.2504 110.843 51.7063 110.843 51.0954C110.843 50.494 110.929 49.9547 111.101 49.4775C111.282 49.0002 111.535 48.5993 111.86 48.2747C112.184 47.9406 112.58 47.6877 113.048 47.5159C113.516 47.3345 114.046 47.2438 114.637 47.2438C115.096 47.2438 115.516 47.2963 115.897 47.4013C116.279 47.4968 116.594 47.64 116.842 47.8309V48.962C116.537 48.7615 116.193 48.6136 115.811 48.5181C115.439 48.4131 115.053 48.3606 114.652 48.3606C113.783 48.3606 113.144 48.585 112.733 49.0336C112.332 49.4822 112.132 50.1695 112.132 51.0954C112.132 52.0213 112.327 52.7086 112.719 53.1572C113.11 53.6059 113.731 53.8302 114.58 53.8302C115.029 53.8302 115.439 53.7777 115.811 53.6727C116.193 53.5581 116.537 53.415 116.842 53.2431V54.3743C116.575 54.5365 116.251 54.675 115.869 54.7895C115.496 54.904 115.067 54.9613 114.58 54.9613Z" fill="#8A8A8A"/>
<path d="M123.457 51.525H119.864V54.8181H118.604V47.387H119.864V50.4511H123.457V47.387H124.717V54.8181H123.457V51.525Z" fill="#8A8A8A"/>
<path d="M132.353 52.3411C132.353 52.7706 132.277 53.1429 132.124 53.4579C131.971 53.7729 131.757 54.0306 131.48 54.2311C131.203 54.4315 130.874 54.5795 130.492 54.675C130.11 54.7704 129.695 54.8181 129.246 54.8181H126.855V47.387H128.115V49.9786H129.332C130.277 49.9786 131.017 50.1647 131.551 50.537C132.086 50.9093 132.353 51.5106 132.353 52.3411ZM134.687 54.8181H133.427V47.387H134.687V54.8181ZM128.115 51.0525V53.7443H129.246C129.79 53.7443 130.229 53.644 130.563 53.4436C130.907 53.2336 131.079 52.89 131.079 52.4127C131.079 51.9259 130.926 51.5775 130.621 51.3675C130.315 51.1575 129.886 51.0525 129.332 51.0525H128.115Z" fill="#8A8A8A"/>
<path d="M140.105 46.399C139.723 46.399 139.389 46.3513 139.103 46.2559C138.826 46.1509 138.592 46.0125 138.401 45.8406C138.22 45.6593 138.081 45.454 137.986 45.225C137.9 44.9863 137.857 44.7286 137.857 44.4518H139.117C139.117 44.8145 139.203 45.077 139.375 45.2393C139.556 45.4015 139.8 45.4827 140.105 45.4827C140.411 45.4827 140.649 45.4015 140.821 45.2393C140.993 45.077 141.079 44.8145 141.079 44.4518H142.339C142.339 44.9959 142.153 45.4588 141.78 45.8406C141.418 46.2129 140.859 46.399 140.105 46.399ZM138.086 53.1L142.052 47.387H143.327V54.8181H142.067V49.1195L138.115 54.8181H136.826V47.387H138.086V53.1Z" fill="#8A8A8A"/>
<path d="M148.673 47.387H154.629V54.8181H153.369V48.4609H149.933V54.8181H148.673V47.387Z" fill="#8A8A8A"/>
<path d="M161.109 53.4006C161.023 53.5725 160.914 53.7538 160.78 53.9447C160.646 54.1261 160.479 54.2931 160.279 54.4459C160.078 54.5986 159.84 54.7227 159.563 54.8181C159.296 54.9136 158.981 54.9613 158.618 54.9613C157.95 54.9613 157.41 54.7752 157 54.4029C156.589 54.0211 156.384 53.477 156.384 52.7706C156.384 51.9593 156.666 51.3627 157.229 50.9809C157.802 50.599 158.613 50.4081 159.663 50.4081H161.052V49.7925C161.052 49.277 160.918 48.9095 160.651 48.69C160.384 48.4704 159.926 48.3606 159.276 48.3606C158.818 48.3606 158.384 48.437 157.974 48.5897C157.563 48.7329 157.196 48.9 156.871 49.0909V47.9597C157.138 47.7975 157.496 47.64 157.945 47.4872C158.403 47.325 158.904 47.2438 159.448 47.2438C160.384 47.2438 161.095 47.4395 161.582 47.8309C162.069 48.2127 162.312 48.8093 162.312 49.6206V53.6154C162.312 53.7013 162.312 53.8015 162.312 53.9161C162.321 54.0211 162.326 54.1309 162.326 54.2454C162.336 54.36 162.345 54.4697 162.355 54.5747C162.364 54.6702 162.374 54.7513 162.384 54.8181H161.238C161.209 54.6845 161.181 54.4984 161.152 54.2597C161.133 54.0115 161.124 53.7968 161.124 53.6154L161.109 53.4006ZM158.89 53.8302C159.281 53.8302 159.615 53.749 159.892 53.5868C160.169 53.4245 160.393 53.2384 160.565 53.0284C160.737 52.8088 160.861 52.5988 160.937 52.3984C161.014 52.1884 161.052 52.0404 161.052 51.9545V51.4104H159.792C159.038 51.4104 158.489 51.5202 158.145 51.7397C157.811 51.9497 157.644 52.2695 157.644 52.699C157.644 53.0331 157.744 53.3052 157.945 53.5152C158.145 53.7252 158.46 53.8302 158.89 53.8302Z" fill="#8A8A8A"/>
<path d="M168.102 54.9613C167.529 54.9613 167.033 54.8277 166.613 54.5604C166.202 54.2931 165.873 53.9256 165.625 53.4579V57.3525H164.365V47.387H165.467L165.596 48.8331C165.844 48.3463 166.178 47.9597 166.598 47.6734C167.018 47.387 167.539 47.2438 168.159 47.2438C168.589 47.2438 168.999 47.325 169.39 47.4872C169.791 47.64 170.14 47.8786 170.436 48.2031C170.741 48.5181 170.98 48.919 171.151 49.4059C171.333 49.8831 171.424 50.4463 171.424 51.0954C171.424 51.754 171.333 52.3268 171.151 52.8136C170.97 53.2909 170.727 53.6918 170.421 54.0163C170.116 54.3313 169.763 54.57 169.362 54.7322C168.961 54.885 168.541 54.9613 168.102 54.9613ZM167.916 53.8302C168.574 53.8302 169.104 53.6059 169.505 53.1572C169.915 52.699 170.121 52.0118 170.121 51.0954C170.121 50.1981 169.915 49.5204 169.505 49.0622C169.104 48.5945 168.574 48.3606 167.916 48.3606C167.591 48.3606 167.286 48.4179 166.999 48.5325C166.722 48.647 166.479 48.8188 166.269 49.0479C166.069 49.2675 165.906 49.549 165.782 49.8927C165.668 50.2363 165.61 50.6372 165.61 51.0954C165.61 51.5536 165.668 51.9545 165.782 52.2981C165.906 52.6418 166.069 52.9281 166.269 53.1572C166.479 53.3863 166.722 53.5581 166.999 53.6727C167.286 53.7777 167.591 53.8302 167.916 53.8302Z" fill="#8A8A8A"/>
<path d="M175.874 48.4609V54.8181H174.614V48.4609H172.28V47.387H178.251V48.4609H175.874Z" fill="#8A8A8A"/>
<path d="M184.631 51.525H181.037V54.8181H179.777V47.387H181.037V50.4511H184.631V47.387H185.891V54.8181H184.631V51.525Z" fill="#8A8A8A"/>
<path d="M192.324 45.9265C192.076 45.9265 191.875 45.8502 191.722 45.6975C191.579 45.5352 191.508 45.3443 191.508 45.1247C191.508 44.8956 191.579 44.7047 191.722 44.552C191.875 44.3897 192.076 44.3086 192.324 44.3086C192.572 44.3086 192.768 44.3897 192.911 44.552C193.063 44.7047 193.14 44.8956 193.14 45.1247C193.14 45.3443 193.063 45.5352 192.911 45.6975C192.768 45.8502 192.572 45.9265 192.324 45.9265ZM189.632 45.9265C189.393 45.9265 189.198 45.8502 189.045 45.6975C188.892 45.5352 188.816 45.3443 188.816 45.1247C188.816 44.8956 188.892 44.7047 189.045 44.552C189.198 44.3897 189.393 44.3086 189.632 44.3086C189.88 44.3086 190.076 44.3897 190.219 44.552C190.372 44.7047 190.448 44.8956 190.448 45.1247C190.448 45.3443 190.372 45.5352 190.219 45.6975C190.076 45.8502 189.88 45.9265 189.632 45.9265ZM193.942 54.1881C193.837 54.2645 193.708 54.3456 193.555 54.4315C193.402 54.5175 193.216 54.6034 192.997 54.6893C192.777 54.7656 192.529 54.8277 192.252 54.8754C191.975 54.9327 191.665 54.9613 191.321 54.9613C190.071 54.9613 189.121 54.6225 188.472 53.9447C187.823 53.267 187.498 52.3172 187.498 51.0954C187.498 50.494 187.584 49.9547 187.756 49.4775C187.938 49.0002 188.186 48.5993 188.501 48.2747C188.816 47.9406 189.188 47.6877 189.618 47.5159C190.047 47.3345 190.515 47.2438 191.021 47.2438C191.555 47.2438 192.033 47.3345 192.453 47.5159C192.873 47.6972 193.216 47.9645 193.483 48.3177C193.76 48.6709 193.946 49.11 194.042 49.635C194.147 50.1504 194.147 50.7518 194.042 51.439H188.801C188.849 52.2409 189.088 52.8422 189.517 53.2431C189.947 53.6345 190.586 53.8302 191.436 53.8302C192.009 53.8302 192.5 53.749 192.911 53.5868C193.321 53.4245 193.665 53.2479 193.942 53.057V54.1881ZM190.992 48.3606C190.448 48.3606 189.98 48.5277 189.589 48.8618C189.198 49.1959 188.949 49.7018 188.844 50.3795H192.839C192.877 49.6922 192.72 49.1863 192.367 48.8618C192.013 48.5277 191.555 48.3606 190.992 48.3606Z" fill="#8A8A8A"/>
<path d="M199.541 54.9613C198.969 54.9613 198.472 54.8277 198.052 54.5604C197.642 54.2931 197.312 53.9256 197.064 53.4579V57.3525H195.804V47.387H196.907L197.036 48.8331C197.284 48.3463 197.618 47.9597 198.038 47.6734C198.458 47.387 198.978 47.2438 199.599 47.2438C200.028 47.2438 200.439 47.325 200.83 47.4872C201.231 47.64 201.579 47.8786 201.875 48.2031C202.181 48.5181 202.419 48.919 202.591 49.4059C202.772 49.8831 202.863 50.4463 202.863 51.0954C202.863 51.754 202.772 52.3268 202.591 52.8136C202.41 53.2909 202.166 53.6918 201.861 54.0163C201.555 54.3313 201.202 54.57 200.801 54.7322C200.4 54.885 199.98 54.9613 199.541 54.9613ZM199.355 53.8302C200.014 53.8302 200.544 53.6059 200.944 53.1572C201.355 52.699 201.56 52.0118 201.56 51.0954C201.56 50.1981 201.355 49.5204 200.944 49.0622C200.544 48.5945 200.014 48.3606 199.355 48.3606C199.031 48.3606 198.725 48.4179 198.439 48.5325C198.162 48.647 197.919 48.8188 197.709 49.0479C197.508 49.2675 197.346 49.549 197.222 49.8927C197.107 50.2363 197.05 50.6372 197.05 51.0954C197.05 51.5536 197.107 51.9545 197.222 52.2981C197.346 52.6418 197.508 52.9281 197.709 53.1572C197.919 53.3863 198.162 53.5581 198.439 53.6727C198.725 53.7777 199.031 53.8302 199.355 53.8302Z" fill="#8A8A8A"/>
</g>
<defs>
<clipPath id="clip0_15311_148">
<rect width="234" height="72" fill="white"/>
</clipPath>
<clipPath id="clip1_15311_148">
<rect width="44" height="44" fill="white" transform="translate(14 14)"/>
</clipPath>
</defs>
</svg>
